<?xml version="1.0" encoding="UTF-8"?>
<!-- Created with Inkscape (http://www.inkscape.org/) -->
<svg width="2e3" height="2e3" version="1.1" viewBox="0 0 2e3 2e3" xmlns="http://www.w3.org/2000/svg" xmlns:cc="http://creativecommons.org/ns#" xmlns:dc="http://purl.org/dc/elements/1.1/" xmlns:rdf="http://www.w3.org/1999/02/22-rdf-syntax-ns#">
 <metadata>
  <rdf:RDF>
   <cc:Work rdf:about="">
    <dc:format>image/svg+xml</dc:format>
    <dc:type rdf:resource="http://purl.org/dc/dcmitype/StillImage"/>
    <dc:title/>
   </cc:Work>
  </rdf:RDF>
 </metadata>
 <path d="m-5.2836 1004.2v-1e3h2009.7v2e3h-2009.7zm602.92 150v-90h160.78v180l185.4-0.166-5.0243-2.3086c-2.7634-1.2697-11.693-5.0995-19.843-8.5106-24.366-10.198-36.891-18.724-54.121-36.843-10.05-10.568-20.873-25.967-27.462-39.076-5.0966-10.139-13.346-31.394-13.809-35.581l-0.32475-2.9363 63.809-9.2284c35.095-5.0757 64.939-9.2468 66.321-9.2693 1.9741-0.032 3.1578 1.0489 5.5268 5.0472 9.524 16.075 29.045 28.375 48.934 30.835 39.402 4.8726 74.132-24.163 75.907-63.462 1.4168-31.358-16.291-56.906-46.942-67.723-8.1892-2.8901-25.607-3.543-35.585-1.3338-16.562 3.6667-34.105 15.999-41.818 29.397-1.9314 3.355-3.8993 6.1134-4.3731 6.1298-1.8758 0.065-131.66-18.014-132.04-18.393-0.33622-0.3346 56.264-250.94 59.022-261.33l0.86285-3.25h-124.44v208h-160.78v-208h-152.74v488h152.74v-90zm691.35 0.086v-89.914l61.046-0.4487c50.137-0.3686 63.102-0.7486 72.556-2.1265 45.532-6.6369 75.163-20.01 98.924-44.645 23.057-23.906 35.045-51.976 38.844-90.951 1.4392-14.766 0.7197-39.174-1.5623-53-10.033-60.784-46.103-98.57-106.52-111.58-22.373-4.8192-20.773-4.7584-135.41-5.1478l-108.27-0.3678v100.1h-220.85l-3.2413 13.75c-1.7827 7.5625-5.8428 24.699-9.0225 38.082-4.7451 19.971-5.4901 24.239-4.1566 23.813 0.89355-0.2855 6.3726-2.3074 12.176-4.4931 13.294-5.0069 37.711-11.701 47.748-13.09 9.7858-1.3545 38.914-1.3666 53.241-0.022 30.235 2.8372 56.58 11.691 79.31 26.652 12.878 8.4771 32.803 28.1 41.436 40.809 32.824 48.318 35.187 112.49 6.3454 172.29-3.2595 6.7578-8.3491 15.983-11.31 20.5-19.02 29.016-48.23 53.062-72.572 59.742-8.0702 2.2146-18.898 7.0389-20.084 8.9486-0.4308 0.6937 28.626 1.0224 90.365 1.0224h91zm0-244.09v-54h30.424c48.304 0 63.803 3.0493 76.569 15.065 11.117 10.463 16.624 23.326 16.581 38.724-0.045 16.066-3.6793 25.057-14.466 35.791-14.862 14.79-30.913 18.42-81.434 18.42h-27.673z" stroke-width="1.0024"/>
 <path d="m445.74 1000.3v-243.31h150.85v209.25h163.02v-209.25h121.75l-1.307 5.4745c-2.5392 10.635-47.071 207.77-52.49 232.36-3.0226 13.718-4.9042 25.533-4.1815 26.256s30.515 5.3399 66.205 10.26l64.891 8.9462 9.8954-11.577c27.937-32.684 75.421-33.24 102.84-1.2047 35.938 41.985 4.7303 107.54-51.078 107.29-19.803-0.087-35.659-7.3743-50.547-23.231l-11.784-12.551-64.806 9.1844c-35.644 5.0515-65.351 9.7291-66.017 10.395-2.5401 2.5401 10.5 34.529 20.974 51.451 19.244 31.091 42.436 50.852 76.365 65.064 8.6293 3.6149 16.146 7.0049 16.703 7.5333 0.55756 0.5285-39.132 0.9609-88.2 0.9609h-89.213v-180.05h-163.02v180.05h-150.85z" fill="#fff" stroke="#fff" stroke-width="2.4331"/>
 <path d="m1113.7 1241.5c1.2712-1.1737 7.9008-3.9462 14.732-6.1611 58.229-18.879 103.08-90.97 103.13-165.77 0.03-43.193-12.994-76.78-41.351-106.63-19.256-20.271-39.728-33.177-66.904-42.178-17.859-5.9149-22.878-6.4619-60.827-6.6287-38.795-0.17059-42.686 0.23875-62.676 6.5945-11.722 3.727-22.957 7.4073-24.967 8.1784-2.3603 0.90573-3.2737 0.22951-2.5802-1.9102 0.59044-1.8218 4.5292-18.367 8.7528-36.767l7.6793-33.455h220.99v-100.35l113.75 1.2124c106.04 1.1303 115.07 1.5628 133.21 6.383 50.455 13.403 80.167 40.402 95.377 86.669 5.6162 17.083 6.4237 23.632 6.601 53.528 0.1509 25.428-0.8842 38.073-4.0828 49.878-13.928 51.405-51.002 87.442-103.98 101.07-19.479 5.0099-65.583 8.1775-121.05 8.3168l-41.971 0.1053v180.05h-88.078c-50.624 0-87.095-0.9075-85.766-2.1341zm261.63-281.61c16.962-5.037 32.185-19.719 36.303-35.012 7.7315-28.713-8.2767-57.752-36.215-65.695-4.8411-1.3763-26.594-3.2014-48.34-4.0558l-39.538-1.5534v113.44l37.321-1.6092c22.552-0.97241 42.524-3.1542 50.468-5.5133z" fill="#fff" stroke="#fff" stroke-width="2.4331"/>
</svg>
