<?xml version="1.0" encoding="UTF-8" standalone="no"?> <!-- Created with Vectornator for iOS (http://vectornator.io/) --><!DOCTYPE svg PUBLIC "-//W3C//DTD SVG 1.1//EN" "http://www.w3.org/Graphics/SVG/1.1/DTD/svg11.dtd">
<svg height="100%" style="fill-rule:evenodd;clip-rule:evenodd;stroke-linecap:round;stroke-linejoin:round;" xmlns:xlink="http://www.w3.org/1999/xlink" xmlns="http://www.w3.org/2000/svg" xml:space="preserve" width="100%" xmlns:vectornator="http://vectornator.io" version="1.1" viewBox="0 0 339 339">
<metadata>
<vectornator:setting key="DisplayWhiteBackground" value="0"/>
<vectornator:setting key="RulersVisible" value="1"/>
<vectornator:setting key="Units" value="Pixels"/>
<vectornator:setting key="New" value="1"/>
<vectornator:setting key="DynamicGuides" value="0"/>
<vectornator:setting key="GuidesVisible" value="1"/>
<vectornator:setting key="SnapToPoints" value="0"/>
<vectornator:setting key="SnapToGrid" value="0"/>
<vectornator:setting key="SnapToGuides" value="1"/>
<vectornator:setting key="DimensionsVisible" value="1"/>
<vectornator:setting key="SnapToEdges" value="0"/>
</metadata>
<defs>
<linearGradient y1="648.211" id="LinearGradient" x1="387.044" y2="430.459" x2="168.037" gradientUnits="userSpaceOnUse" gradientTransform="matrix(1.07381 0 0 1.07381 -125.542 -412.757)">
<stop stop-color="#3498db" offset="0"/>
<stop stop-color="#1abc9c" offset="1"/>
</linearGradient>
</defs>
<g id="Ebene 1" vectornator:layerName="Ebene 1">
<g opacity="1">
<path d="M0.284998+169.5C0.284998+76.0451+76.0451+0.284998+169.5+0.284998C262.955+0.284998+338.715+76.0451+338.715+169.5C338.715+262.955+262.955+338.715+169.5+338.715C76.0451+338.715+0.284998+262.955+0.284998+169.5Z" opacity="1" fill="url(#LinearGradient)"/>
<path d="M169.5+33.7847L83.6525+83.349L83.6525+182.478L169.5+232.042L255.347+182.478L255.347+83.349L169.5+33.7847ZM230.988+106.331C232.692+106.308+234.334+106.91+235.54+108.001C236.746+109.092+237.413+110.579+237.388+112.122L237.388+112.632C237.426+114.695+236.233+116.615+234.267+117.657C232.301+118.698+229.867+118.698+227.901+117.657C225.935+116.615+224.741+114.695+224.779+112.632L224.779+112.122C224.73+108.971+227.508+106.379+230.988+106.331ZM107.311+106.876C108.731+106.857+110.099+107.36+111.103+108.269C112.108+109.178+112.663+110.417+112.643+111.703L112.643+145.427L131.445+145.427C134.348+145.427+136.7+147.558+136.7+150.186C136.7+152.814+134.348+154.945+131.445+154.945L107.389+154.945C104.487+154.944+102.134+152.813+102.135+150.185L102.135+111.703C102.093+109.076+104.41+106.915+107.311+106.876ZM231.004+119.3C232.424+119.281+233.793+119.783+234.798+120.692C235.802+121.601+236.358+122.84+236.338+124.126L236.338+150.134C236.369+151.853+235.375+153.453+233.736+154.321C232.098+155.189+230.07+155.189+228.431+154.321C226.793+153.453+225.798+151.853+225.83+150.134L225.83+124.126C225.788+121.5+228.104+119.34+231.004+119.3ZM163.082+119.535C164.502+119.515+165.87+120.017+166.875+120.926C167.88+121.834+168.436+123.073+168.416+124.359L168.416+141.013C168.484+141.794+168.601+144.558+167.08+147.618C165.3+151.201+160.262+154.945+153.18+154.945C146.282+154.945+141.343+151.247+139.565+147.751C138.009+144.692+138.1+141.922+138.149+141.243L138.149+124.728C138.1+122.999+139.09+121.383+140.736+120.506C142.381+119.629+144.422+119.629+146.067+120.506C147.713+121.383+148.703+122.999+148.654+124.728L148.654+141.519L148.639+141.704C148.639+141.704+148.634+142.837+149.107+143.769C149.581+144.701+149.529+145.429+153.18+145.429C157.078+145.429+157.033+144.651+157.498+143.714C157.964+142.777+157.934+141.62+157.934+141.62L157.908+141.384L157.908+124.359C157.868+121.733+160.183+119.575+163.082+119.535ZM186.766+119.548C190.787+119.548+194.137+120.809+196.59+122.55C199.083+120.802+202.489+119.548+206.584+119.548C213.481+119.548+218.421+123.248+220.199+126.744C221.755+129.802+221.663+132.571+221.615+133.249L221.615+149.765C221.647+151.484+220.652+153.084+219.014+153.952C217.375+154.82+215.347+154.82+213.709+153.952C212.07+153.084+211.076+151.484+211.107+149.765L211.107+132.974L211.123+132.788C211.123+132.788+211.13+131.656+210.656+130.724C210.182+129.792+210.234+129.064+206.584+129.064C202.686+129.064+202.731+129.842+202.266+130.779C201.8+131.716+201.83+132.872+201.83+132.872L201.855+133.109L201.855+150.134C201.858+152.643+199.709+154.722+196.944+154.886C194.18+155.05+191.75+153.243+191.391+150.755C191.319+150.429+191.285+150.097+191.289+149.765L191.289+132.974L191.305+132.788C191.305+132.788+191.312+131.656+190.838+130.724C190.364+129.792+190.416+129.064+186.766+129.064C182.868+129.064+182.915+129.842+182.449+130.779C181.984+131.716+182.012+132.872+182.012+132.872L182.037+133.109L182.037+150.134C182.069+151.853+181.074+153.453+179.436+154.321C177.797+155.189+175.769+155.189+174.131+154.321C172.492+153.453+171.498+151.853+171.529+150.134L171.529+133.492C171.462+132.731+171.336+129.952+172.865+126.874C174.646+123.291+179.683+119.548+186.766+119.548Z" opacity="1" fill="#ffffff"/>
<path d="M120.547+223.483L119.66+223.995L119.66+281.544L169.5+310.319L219.34+281.544L219.34+223.995L218.453+223.483L169.5+251.745C169.5+251.745+120.547+223.483+120.547+223.483Z" opacity="1" fill="#ffffff"/>
</g>
</g>
</svg>
